<svg width="63" height="63" viewBox="0 0 63 63" fill="none" xmlns="http://www.w3.org/2000/svg">
<path d="M46.5308 34.1775L36.75 42H23.625V39.375H34.2956C34.533 39.3749 34.766 39.3104 34.9696 39.1883C35.1733 39.0663 35.34 38.8913 35.452 38.682C35.5641 38.4727 35.6173 38.2369 35.6059 37.9998C35.5946 37.7626 35.5191 37.533 35.3876 37.3354L33.0566 33.8389C32.5784 33.1191 31.9296 32.5289 31.1679 32.1208C30.4062 31.7127 29.5554 31.4994 28.6912 31.5H7.875C7.17881 31.5 6.51113 31.7766 6.01884 32.2688C5.52656 32.7611 5.25 33.4288 5.25 34.125V49.875C5.25 51.2674 5.80312 52.6027 6.78769 53.5873C7.77225 54.5719 9.10761 55.125 10.5 55.125H35.8024C36.9248 55.1253 38.0344 54.8856 39.0567 54.422C40.0789 53.9584 40.9903 53.2816 41.7296 52.437L57.75 34.125L53.9385 32.8545C52.6915 32.4388 51.3602 32.3421 50.0662 32.5732C48.7723 32.8043 47.5568 33.3559 46.5308 34.1775ZM50.5522 19.3987C51.7361 18.1781 52.4685 16.4902 52.4685 14.6265C52.4685 12.7627 51.7361 11.0749 50.5522 9.85425C49.9535 9.22944 49.2348 8.73205 48.439 8.39194C47.6433 8.05182 46.7871 7.87599 45.9217 7.875C45.9217 7.875 42.6562 7.86712 39.375 11.2507C36.0938 7.86712 32.8282 7.875 32.8282 7.875C31.9632 7.8761 31.1072 8.05172 30.3115 8.39136C29.5159 8.73099 28.797 9.22766 28.1977 9.85163C27.0139 11.0749 26.2815 12.7601 26.2815 14.6239C26.2815 16.4876 27.0139 18.1781 28.1977 19.3961L39.375 31.5L50.5522 19.3987Z" fill="#124076"/>
</svg>
